<svg width="370" height="90" viewBox="0 0 370 90" fill="none" xmlns="http://www.w3.org/2000/svg">
<path d="M364.069 15.2378C367.029 15.2378 369.349 17.4778 369.349 20.4378C369.349 23.4778 367.029 25.6378 364.069 25.6378C361.109 25.6378 358.789 23.4778 358.789 20.4378C358.789 17.4778 361.109 15.2378 364.069 15.2378ZM359.749 31.6378H368.389V72.5978H359.749V31.6378Z" fill="white"/>
<path d="M336.392 61.4778V39.2378H329.272V31.6378H336.392V20.1978H345.112V31.6378H354.952V39.2378H345.112V60.5978C345.112 63.7978 346.232 64.9978 349.352 64.9978H355.912V72.5978H347.592C339.752 72.5978 336.392 68.9178 336.392 61.4778Z" fill="white"/>
<path d="M327.625 57.8778C326.025 67.2378 319.225 73.0778 308.745 73.0778C296.425 73.0778 288.345 64.6778 288.345 52.0378C288.345 39.4778 296.505 31.1578 308.985 31.1578C319.305 31.1578 326.025 36.9978 327.625 46.1978H318.745C317.625 41.5578 313.945 38.5178 308.745 38.5178C301.785 38.5178 297.225 44.0378 297.225 52.0378C297.225 60.1178 301.785 65.7178 308.745 65.7178C314.105 65.7178 317.785 62.6778 318.825 57.8778H327.625Z" fill="white"/>
<path d="M277.876 15.2378C280.836 15.2378 283.156 17.4778 283.156 20.4378C283.156 23.4778 280.836 25.6378 277.876 25.6378C274.916 25.6378 272.596 23.4778 272.596 20.4378C272.596 17.4778 274.916 15.2378 277.876 15.2378ZM273.556 31.6378H282.196V72.5978H273.556V31.6378Z" fill="white"/>
<path d="M257.273 16.5978H265.913V72.5978H258.393L257.353 66.4378C254.713 70.0378 250.473 73.0778 243.993 73.0778C232.873 73.0778 224.633 65.2378 224.633 52.1178C224.633 39.4778 232.873 31.1578 243.993 31.1578C250.233 31.1578 254.633 33.7178 257.273 37.3178V16.5978ZM245.433 65.7978C252.633 65.7978 257.353 60.1978 257.353 52.2778C257.353 44.1178 252.633 38.5178 245.433 38.5178C238.233 38.5178 233.513 44.1178 233.513 52.1178C233.513 60.1978 238.233 65.7978 245.433 65.7978Z" fill="white"/>
<path d="M179.807 52.1978C179.807 39.4778 187.887 31.1578 199.727 31.1578C211.567 31.1578 219.727 38.6778 219.967 50.6778C219.967 51.7178 219.887 52.8378 219.728 53.9578H188.847V54.4378C189.247 61.4778 193.487 66.0378 200.287 66.0378C205.567 66.0378 209.407 63.3978 210.607 58.8378H219.247C217.807 66.9178 211.007 73.0778 200.927 73.0778C187.967 73.0778 179.807 64.7578 179.807 52.1978ZM189.167 47.6378H211.167C210.447 41.5578 206.047 38.1178 200.047 38.1178C194.527 38.1178 189.807 41.7978 189.167 47.6378Z" fill="white"/>
<path d="M176.676 31.6378H178.596V39.7178H174.756C167.076 39.7178 164.596 45.7178 164.596 52.0378V72.5978H155.956V31.6378H163.636L164.596 37.7978C166.676 34.3578 169.956 31.6378 176.676 31.6378Z" fill="white"/>
<path d="M109.12 16.5978H131.2C142.88 16.5978 150.56 23.5578 150.56 34.4378C150.56 45.2378 142.88 52.2778 131.2 52.2778H118.32V72.5978H109.12V16.5978ZM118.32 24.5978V44.2778H130.4C136.96 44.2778 141.2 40.4378 141.2 34.4378C141.2 28.3578 137.04 24.5978 130.48 24.5978H118.32Z" fill="white"/>
<path fill-rule="evenodd" clip-rule="evenodd" d="M72 18L54 0H36V18H18L0 36V54H18L0 72V90H18L36 72H54L72 54V18ZM18 54L36 36V18L54 36L36 54H18Z" fill="white"/>
</svg>
